<svg version="1.0" xmlns="http://www.w3.org/2000/svg"
 width="86.000000pt" height="106.000000pt" viewBox="0 0 86.000000 106.000000"
 preserveAspectRatio="xMidYMid meet">
    <g transform="translate(0.000000,106.000000) scale(0.100000,-0.100000)"
    fill="#000000" stroke="none">
    <path d="M496 921 c-10 -11 -82 -176 -162 -367 -79 -191 -154 -358 -166 -371
    -19 -20 -20 -25 -8 -33 23 -14 106 -12 145 4 18 8 40 27 48 43 21 41 259 614
    267 643 4 14 3 37 -2 51 -16 47 -90 65 -122 30z"/>
    <path d="M556 528 c-16 -14 -48 -80 -86 -173 -33 -82 -70 -159 -81 -171 -30
    -32 -16 -44 49 -44 40 0 68 7 96 23 36 20 44 33 93 152 29 71 53 141 53 156 0
    14 -9 38 -21 53 -26 33 -68 34 -103 4z"/>
    </g>
</svg>
