<svg xmlns="http://www.w3.org/2000/svg" xmlns:xlink="http://www.w3.org/1999/xlink" width="957" height="268"><defs><clipPath id="c"><use xlink:href="#a"/></clipPath><clipPath id="d"><use xlink:href="#b"/></clipPath><path id="a" d="M0 0h49.06v3.97H0V0Z"/><path id="b" d="M0 0h49.06v3.97H0V0Z"/></defs><path fill="#70CE9D" d="M944.94 224.475c0 24-17.32 35.09-39.89 35.09-23 0-41.28-11.91-41.28-36.33"/><path fill="#80C4D3" d="M863.77 186.895c0-24.43 18.24-36.33 41.28-36.33 22.57 0 39.88 11.13 39.88 35.09"/><path fill="none" stroke="#F2BB47" stroke-width="3" d="M782.5 159.005v92.3"/><g fill="#F2BB47"><path d="M556.67 221.755h-27.82v15.85h28.7M557.55 186.695h-28.7v14.31h27.82"/></g><g fill="none" fill-opacity="0" stroke="#70CE9D" stroke-width="3"><path d="M671.5 189.805c4.09 0 4.09 4 8.18 4s4.08-4 8.17-4 4.09 4 8.18 4 4.08-4 8.17-4 4.09 4 8.18 4 4.09-4 8.18-4M671.5 199.625c4.09 0 4.09 4 8.18 4s4.08-4 8.17-4 4.09 4 8.18 4 4.08-4 8.17-4 4.09 4 8.18 4 4.09-4 8.18-4M671.5 209.435c4.09 0 4.09 4 8.18 4s4.08-4 8.17-4 4.09 4 8.18 4 4.08-4 8.17-4 4.09 4 8.18 4 4.09-4 8.18-4M671.5 219.245c4.09 0 4.09 4 8.18 4s4.08-4 8.17-4 4.09 4 8.18 4 4.08-4 8.17-4 4.09 4 8.18 4 4.09-4 8.18-4"/></g><path fill="#F2BB47" d="m333.32 146.425-27.06 67.49h45.47l-18.41-67.49Z"/><path fill="#EA0D7E" d="M198.84 224.235v-60.23h41c16.64 0 30.13 13.49 30.13 30.13s-13.49 30.13-30.13 30.13l-41-.03Z"/><path fill="none" d="M899.61 63.435h49.06v3.97h-49.06v-3.97Z"/><g clip-path="url(#c)" transform="translate(899.61 63.435)"><path fill="none" stroke="#80C4D3" stroke-width="3" d="M0 0c4.09 0 4.09 4 8.18 4s4.08-4 8.17-4 4.09 4 8.18 4 4.08-4 8.17-4 4.09 4 8.18 4 4.09-4 8.18-4"/></g><path fill="none" d="M899.61 73.245h49.06v3.97h-49.06v-3.97Z"/><g clip-path="url(#d)" transform="translate(899.61 73.245)"><path fill="none" stroke="#80C4D3" stroke-width="3" d="M0 0c4.09 0 4.09 4 8.18 4s4.08-4 8.17-4 4.09 4 8.18 4 4.08-4 8.17-4 4.09 4 8.18 4 4.09-4 8.18-4"/></g><path fill="none" d="M899.61 83.055h49.06v3.97h-49.06v-3.97Z"/><g clip-path="url(#d)" transform="translate(899.61 83.055)"><path fill="none" stroke="#80C4D3" stroke-width="3" d="M0 0c4.09 0 4.09 4 8.18 4s4.08-4 8.17-4 4.09 4 8.18 4 4.08-4 8.17-4 4.09 4 8.18 4 4.09-4 8.18-4"/></g><path fill="none" d="M899.61 92.865h49.06v3.97h-49.06v-3.97Z"/><g clip-path="url(#d)" transform="translate(899.61 92.865)"><path fill="none" stroke="#80C4D3" stroke-width="3" d="M0 0c4.09 0 4.09 4 8.18 4s4.08-4 8.17-4 4.09 4 8.18 4 4.08-4 8.17-4 4.09 4 8.18 4 4.09-4 8.18-4"/></g><path fill="#F2BB47" d="M849.21 55.415c0 20.506-16.624 37.13-37.13 37.13-20.506 0-37.13-16.624-37.13-37.13 0-20.507 16.624-37.13 37.13-37.13 20.506 0 37.13 16.623 37.13 37.13"/><path fill="#70CE9D" d="M795.12 136.005a12.67 12.67 0 1 1-12.62-12.63c6.962.027 12.598 5.667 12.62 12.63"/><path fill="#80C4D3" d="m721.85 111.585-1.12-34.58-1-57.77h22.58v92.33l-20.46.02Z"/><path fill="#70CE9D" d="M651.86 108.585h-51.28v-92.33l51.28 92.33Z"/><path fill="#EA0D7E" d="M857.24 256.555h-51.28v-92.33l51.28 92.33Z"/><path fill="none" stroke="#EA0D7E" stroke-width="13" d="M546.5 7.505c-27.08 0-49.41 19.84-49.41 47.54 0 27.32 21.84 48.41 49 48.41"/><g fill="#F2BB47"><path d="M390.5 101.585h30v-4h-30v4ZM394.5 91.805h30v-4h-30v4ZM398.6 82.005h30v-4h-30v4ZM402.68 72.245h30v-4h-30v4ZM406.76 62.475h30v-4h-30v4ZM410.83 52.695h30v-4h-30v4ZM414.91 42.915h30v-4h-30v4ZM418.98 33.135h30v-4h-30v4ZM423.06 23.365h30v-4h-30v4ZM427.13 13.585h30v-4h-30v4Z"/></g><g fill="#80C4D3"><path d="M7.5 228.515h30v-3h-30v3ZM7.5 219.095h30v-3h-30v3ZM7.5 209.675h30v-3h-30v3ZM7.5 200.245h30v-3h-30v3ZM7.5 190.825h30v-3h-30v3ZM7.5 181.405h30v-3h-30v3ZM7.5 172.005h30v-3h-30v3Z"/></g><g fill="#80C4D3"><path d="M618.97 193.715h16.84v-3h-16.84v3ZM618.97 187.465h16.84v-3h-16.84v3ZM618.97 181.225h16.84v-3h-16.84v3ZM618.97 175.005h16.84v-3h-16.84v3ZM618.97 168.725h16.84v-3h-16.84v3Z"/></g><path fill="#80C4D3" d="m337.95 67.275-35.68-58h-20.34v.73l57.4 91.59h19.73l-21.11-34.32ZM615.5 217.245l-35.68-58H559.5v.76l57.39 91.59h19.74l-21.13-34.35Z"/><path fill="none" stroke="#70CE9D" stroke-width="15" d="M132.2 253.055c-26.08 0-48.54-20.21-48.54-46.78a53 53 0 0 1 3.62-19.72 42.73 42.73 0 0 1 6-10.35c9.48-12.48 23.33-19 39.05-19"/><path fill="#70CE9D" d="m240.86 109.585-4.49-13.35H204.3l-4.86 13.35h-25.33l37.06-92.33h18.59l36.68 92.33h-25.58Zm-20.21-63.58h-.38l-9.47 31.5h19.33l-9.48-31.5Z"/><path fill="none" stroke="#000" stroke-width="3" d="m246.86 101.585-4.49-13.35H210.3l-4.86 13.35h-25.33l37.06-92.33h18.59l36.68 92.33h-25.58Zm-20.21-63.58h-.38l-9.47 31.5h19.33l-9.48-31.5ZM339.33 101.585l-35.19-56.15-.25.13.62 56h-22.58V9.255h20.34l35.68 58 .25-.25-1-57.77h22.59v92.33l-20.46.02ZM472.2 101.585l-4.49-13.35h-32.07l-4.86 13.35H405.5l37-92.33h18.6l36.68 92.33H472.2Zm-20.21-63.58h-.38l-9.48 31.5h19.37l-9.51-31.5ZM546.08 103.455c-27.2 0-49-21.09-49-48.41 0-27.7 22.33-47.54 49.41-47.54 20 0 40.55 13 46.16 32.69h-26.49a22.66 22.66 0 0 0-20.33-12c-15.1 0-25.21 12.23-25.21 26.83 0 15.1 9.61 27.7 25.33 27.7 10.11 0 19.22-4.62 22.08-14.85H540.5v-18.82h54.77c.13 1.62.13 3.24.13 4.87-.04 28.32-21 49.53-49.32 49.53ZM607.58 101.585V9.255h51.28v20.75h-28.7v14.31h27.83v20.69h-27.83v15.87h28.7v20.71h-51.28ZM730.85 101.585l-35.18-56.15-.25.13.62 56H673.5V9.255h20.3l35.68 58 .25-.25-1-57.77h22.59v92.33l-20.47.02Z"/><path fill="none" stroke="#000" stroke-width="3" d="m730.85 101.585-35.18-56.15-.25.13.62 56H673.5V9.255h20.3l35.68 58 .25-.25-1-57.77h22.59v92.33l-20.47.02ZM813.08 103.325c-26.82 0-48.66-21-48.66-48s21.59-47.82 48.41-47.82a47.7 47.7 0 0 1 40.67 21.71 39.348 39.348 0 0 1 6.24 15.1h-24.7c-3.62-9.48-12-16.1-22.33-16.1-15 0-24.71 12.73-24.71 26.95 0 14.22 9.73 27.45 24.83 27.45 10.36 0 18.09-6.49 22.21-15.59h24.71c-5.37 21.83-24.33 36.3-46.67 36.3ZM911.5 68.005v33.56h-23.56v-33.56l-27.57-58.75h25.58l13.72 37.06 13.83-37.06h25.33l-27.33 58.75ZM47.1 179.685v15.72h26.83v20.71H47.1v35.19H24.5v-92.3h50.43v20.71l-27.83-.03ZM132.2 253.055c-26.08 0-48.54-20.21-48.54-46.78a53 53 0 0 1 3.62-19.72 42.73 42.73 0 0 1 6-10.35c9.48-12.48 23.33-19 39.05-19 27 0 48.79 20.71 48.79 47.91 0 27.2-21.85 47.94-48.92 47.94Zm.25-75.11c-15.1 0-25.21 12.48-25.21 26.95 0 14.73 10.11 27.45 25.46 27.45 14.84 0 24.82-13 24.82-27.07 0-14.35-10-27.33-25.08-27.33h.01ZM238.01 251.305l-21.34-29.82h-.25v29.82h-22.58v-92.3h29.2c9.73 0 20.46.25 28.44 6.61 7.62 6.12 11.36 15.6 11.36 25.21 0 14.22-8.36 26.7-23 29.07l25.08 31.44-26.91-.03Zm-13-71.62h-8.61v25.72h8.36c8.86 0 15.47-3.75 15.47-13.24.02-9.11-7.09-12.48-15.2-12.48h-.02ZM370.89 251.305l-4.49-13.3h-32.06l-4.84 13.3h-25.36l37.06-92.3h18.59l36.71 92.3h-25.61Zm-20.21-63.63h-.37l-9.49 31.55h19.34l-9.48-31.55Z"/><path fill="#80C4D3" d="M390.72 209.775c0-27.7 22.33-47.54 49.41-47.54 20 0 40.55 13 46.16 32.69h-26.45a22.67 22.67 0 0 0-20.34-12c-15.09 0-25.2 12.23-25.2 26.83 0 15.09 9.61 27.7 25.33 27.7 10.11 0 19.21-4.62 22.08-14.85h-27.57v-18.82h54.77c.13 1.62.13 3.24.13 4.86 0 28.33-21 49.54-49.28 49.54-27.21 0-49-21.09-49-48.41h-.04Z"/><path fill="none" stroke="#000" stroke-width="3" d="M444.76 253.185c-27.21 0-49-21.09-49-48.41 0-27.7 22.33-47.54 49.41-47.54 20 0 40.55 13 46.16 32.69h-26.49a22.66 22.66 0 0 0-20.33-12c-15.1 0-25.21 12.23-25.21 26.83 0 15.09 9.61 27.7 25.33 27.7 10.11 0 19.22-4.62 22.08-14.85h-27.57v-18.82h54.77c.13 1.62.13 3.24.13 4.86 0 28.33-21 49.54-49.28 49.54ZM506.27 251.305v-92.3h51.28v20.71h-28.7v14.29h27.83v20.71h-27.83v15.85h28.7v20.74h-51.28ZM629.5 251.305l-35.18-56.15-.25.13.62 56h-22.54v-92.28h20.35l35.68 58 .25-.25-1-57.77h22.59v92.32H629.5ZM711.77 253.055c-26.83 0-48.67-21-48.67-48s21.59-47.79 48.42-47.79a47.7 47.7 0 0 1 40.68 21.71 39.35 39.35 0 0 1 6.24 15.1h-24.71c-3.62-9.48-12-16.1-22.34-16.1-15 0-24.71 12.73-24.71 26.95 0 14.22 9.74 27.45 24.84 27.45 10.35 0 18.09-6.49 22.21-15.59h24.71c-5.37 21.83-24.34 36.3-46.67 36.3v-.03ZM770.65 251.305h23.58v-92.3h-23.58v92.3ZM810.96 251.305v-92.3h51.28v20.71H833.5v14.29h27.83v20.71H833.5v15.85h28.7v20.74h-51.24ZM904.91 253.055c-18.59 0-33.31-9.6-33.31-29.32v-3h23.46c0 6 2.74 12.6 9.6 12.6a8.92 8.92 0 0 0 9-8.86c0-6-5-8-9.86-10.1-2.74-1.25-5.49-2.37-8.23-3.5-12-5-22.59-12-22.59-26.45 0-17.22 16.6-27.2 32.32-27.2 9 0 19.09 3.37 25 10.48 4.74 5.86 5.87 11 6.12 18.22h-23.4c-.74-5.12-2.49-9-8.48-9-4.12 0-8.11 2.87-8.11 7.24a6.81 6.81 0 0 0 .87 3.87c2.25 3.74 14.35 8.48 18.22 10.23 12.23 5.61 21.58 12 21.58 26.45 0 19.34-14 28.32-32.19 28.32v.02Z"/></svg>