<svg id="Capa_1" data-name="Capa 1" xmlns="http://www.w3.org/2000/svg" viewBox="0 0 177 40">
  <title>logo</title>
  <g fill="#000" id="iso2">
    <path fill="#000" id="v3e8b" d="M21.9,36.87c-2,4.06-8.73,3.29-10.72,2.48,1.6-1,2.8-3.41,3.6-5.44L19.6,22a3.82,3.82,0,0,1,5-2.21A4,4,0,0,1,26.75,25Z"/>
  </g>
  <g fill="#000" id="iso1">
    <path fill="#000" id="v3e8c" d="M10.86,36.91C8.79,40.93,2,40.16,0,39.36,1.63,38.42,2.83,36,3.65,34L16.7,2.46A3.9,3.9,0,0,1,21.78.28,4,4,0,0,1,24,5.39Z"/>
  </g>
  <g fill="#000" id="logo">
    <path fill="#000" id="v3e8d" d="M159.3,32.19c-.26-.17-.43-.77-.48-1.83V15.81h-2.59v6.08h0A4.2,4.2,0,0,0,152.7,20c-3.7,0-5.51,2.82-5.51,6.32,0,3.21,1.6,6.2,5.08,6.2,1.6,0,3.29-.41,4.07-1.95h0l0,.34a1.76,1.76,0,0,0,2,1.42,2.52,2.52,0,0,0,.93-.17M153,30.48c-2.36,0-3.24-2.12-3.24-4.17s1.09-4.22,3.24-4.22,3.29,1.68,3.29,4.22c0,2.34-1.19,4.17-3.29,4.17"/>
    <path fill="#000" id="v3e8e" d="M111.15,20.36V16.74h-2.81v3.62H106.2v2h2.14v7.11a6.34,6.34,0,0,0,.21,1.73c.38,1.39,2,1.57,3.09,1.22-.39-.19-.52-1.27-.52-2V22.31h2.53v-2Z"/>
    <path fill="#000" id="v3e8f" d="M51.24,19.89h2.64v2.4h0a4.12,4.12,0,0,1,3.73-2.76,4.25,4.25,0,0,1,1.06.08v2.66c-.39,0-.8-.1-1.19-.1-1.91,0-3.44,1.52-3.44,4.28v6.1H51.24Z"/>
    <path fill="#000" id="v3e8g" d="M79.39,24a2.52,2.52,0,0,0-2.69-2.31c-1.34,0-3.26.73-3.26,4.49,0,2.08.86,4.24,3.12,4.24,1.51,0,2.54-1.05,2.8-2.81H82c-.48,3.19-2.38,5-5.45,5-3.69,0-5.73-2.73-5.73-6.4s1.94-6.62,5.83-6.62C79.39,19.53,81.69,21,82,24Z"/>
    <path fill="#000" id="v3e8h" d="M83.86,15.81h2.65v9.45l4.75-4.86h3.23L89.9,24.84,95,32.55H91.79l-3.75-6-1.56,1.54v4.44H83.84Z"/>
    <path fill="#000" id="v3e8i" d="M97.55,26.78c0,1.93,1,3.64,3.15,3.64a2.71,2.71,0,0,0,2.84-2.08H106a5.17,5.17,0,0,1-5.25,4.21c-3.65,0-5.71-2.71-5.71-6.5,0-3.51,2.15-6.52,5.63-6.52,3.67,0,5.92,3.51,5.5,7.23h-8.6Zm6-1.79c-.1-1.72-1.19-3.25-2.94-3.25A3.14,3.14,0,0,0,97.55,25Z"/>
    <path fill="#000" id="v3e8j" d="M114.65,19.89h2.55v1.76h.07A4,4,0,0,1,121,19.53a3.4,3.4,0,0,1,3.41,2.12,4.38,4.38,0,0,1,3.8-2.12c2.54,0,4.07,1.17,4.07,4.23v8.79h-2.69V25.06c0-2-.1-3.39-2.22-3.39-1.8,0-2.59,1.25-2.59,3.34v7.52h-2.69V24.32c0-1.71-.52-2.63-2.15-2.63-1.39,0-2.67,1.18-2.67,3.24v7.6h-2.69Z"/>
    <path fill="#000" id="v3e8k" d="M136.66,26.78c0,1.93,1,3.64,3.15,3.64a2.71,2.71,0,0,0,2.84-2.08h2.46a5.14,5.14,0,0,1-5.25,4.21c-3.65,0-5.71-2.71-5.71-6.5,0-3.51,2.15-6.52,5.64-6.52,3.67,0,5.91,3.51,5.49,7.23h-8.62Zm6-1.79a3,3,0,1,0-6,0Z"/>
    <path fill="#000" id="v3e8m" d="M161.16,18.29H164V15.81h-2.8Zm0,14.26H164V20.38h-2.8Z"/>
    <path fill="#000" id="v3e8n" d="M43.88,20a4.28,4.28,0,0,0-3.52,1.85h0V15.81h-2.6v14.6c0,.51-.1,1.66-.48,1.83a3.25,3.25,0,0,0,.91.15,1.78,1.78,0,0,0,2-1.45l0-.34h0c.76,1.54,2.46,1.95,4.08,1.95,3.47,0,5.09-3,5.09-6.18,0-3.49-1.79-6.35-5.49-6.35m-.36,10.47c-2.1,0-3.3-1.78-3.3-4.16s1.1-4.21,3.3-4.21,3.25,2,3.25,4.21-.89,4.16-3.25,4.16"/>
    <path fill="#000" id="v3e8o" d="M69.87,32.18c-.37-.25-.49-1.65-.49-2.35V23.1c0-2.57-2.46-3.57-4.8-3.57-2.65,0-5.28.95-5.45,4.1h2.65c.1-1.33,1.17-1.95,2.66-1.95,1,0,2.48.25,2.48,1.67,0,1.6-1.7,1.4-3.6,1.75-2.22.28-4.63.78-4.63,3.85,0,2.4,2,3.6,4.12,3.6A6.08,6.08,0,0,0,67,31.05a1.76,1.76,0,0,0,1.53,1.3A3.06,3.06,0,0,0,69.87,32.18Zm-3.14-4.12c0,1.72-1.8,2.34-3,2.34-.93,0-2.46-.35-2.46-1.57,0-1.42,1-1.85,2.14-2.07s2.46-.2,3.24-.73Z"/>
    <path fill="#000" id="v3e8p" d="M177,32.18c-.37-.25-.51-1.58-.49-2.35V23.1c0-2.57-2.46-3.57-4.8-3.57-2.65,0-5.28.95-5.45,4.1h2.65c.1-1.33,1.17-1.95,2.66-1.95,1,0,2.48.25,2.48,1.67,0,1.6-1.7,1.4-3.6,1.75-2.22.28-4.63.78-4.63,3.85,0,2.4,2,3.6,4.12,3.6a6.08,6.08,0,0,0,4.16-1.5,1.76,1.76,0,0,0,1.53,1.3,3,3,0,0,0,1.37-.17Zm-3.08-4.12c0,1.72-1.81,2.34-3,2.34-.93,0-2.47-.35-2.47-1.57,0-1.42,1-1.85,2.15-2.07s2.47-.2,3.25-.73Z"/>
  </g>
</svg>
